<?xml version="1.0" encoding="UTF-8" standalone="no"?>
<svg
   xmlns:dc="http://purl.org/dc/elements/1.1/"
   xmlns:cc="http://creativecommons.org/ns#"
   xmlns:rdf="http://www.w3.org/1999/02/22-rdf-syntax-ns#"
   xmlns:svg="http://www.w3.org/2000/svg"
   xmlns="http://www.w3.org/2000/svg"
   xmlns:sodipodi="http://sodipodi.sourceforge.net/DTD/sodipodi-0.dtd"
   xmlns:inkscape="http://www.inkscape.org/namespaces/inkscape"
   version="1.0"
   width="512.000000pt"
   height="512.000000pt"
   viewBox="0 0 512.000000 512.000000"
   preserveAspectRatio="xMidYMid meet"
   id="svg10"
   sodipodi:docname="safari-pinned-tab.svg"
   inkscape:version="1.0.1 (3bc2e813f5, 2020-09-07)">
  <defs
     id="defs14" />
  <sodipodi:namedview
     pagecolor="#ffffff"
     bordercolor="#666666"
     borderopacity="1"
     objecttolerance="10"
     gridtolerance="10"
     guidetolerance="10"
     inkscape:pageopacity="0"
     inkscape:pageshadow="2"
     inkscape:window-width="1920"
     inkscape:window-height="1017"
     id="namedview12"
     showgrid="false"
     inkscape:zoom="1.2451172"
     inkscape:cx="341.33333"
     inkscape:cy="341.33333"
     inkscape:window-x="1272"
     inkscape:window-y="-8"
     inkscape:window-maximized="1"
     inkscape:current-layer="svg10" />
  <metadata
     id="metadata2">
Created by potrace 1.14, written by Peter Selinger 2001-2017
<rdf:RDF>
  <cc:Work
     rdf:about="">
    <dc:format>image/svg+xml</dc:format>
    <dc:type
       rdf:resource="http://purl.org/dc/dcmitype/StillImage" />
  </cc:Work>
</rdf:RDF>
</metadata>
  <g
     transform="translate(0.000000,512.000000) scale(0.100000,-0.100000)"
     fill="#000000"
     stroke="none"
     id="g8">
    <path
       d="M595 5109 c-186 -31 -363 -149 -474 -315 -57 -84 -84 -151 -106 -261 -14 -70 -15 -284 -13 -2013 l3 -1935 26 -77 c43 -124 93 -204 189 -300 73 -72 103 -94 181 -131 170 -83 11 -77 2159 -77 2149 0 1988 -6 2160 77 80 39 108 59 186 137 78 78 98 106 137 186 83 171 77 12 77 2155 0 2060 2 1968 -51 2111 -62 166 -238 341 -407 404 -139 52 -49 50 -2105 49 -1052 -1 -1934 -5 -1962 -10z m496 -1767 c166 -44 314 -192 370 -372 29 -92 36 -253 15 -350 -25 -118 -77 -213 -165 -301 -47 -46 -97 -86 -131 -102 -178 -86 -361 -72 -515 38 l-65 46 0 -265 0 -266 -140 0 c-105 0 -140 3 -140 13 0 6 -3 357 -6 780 l-6 767 146 0 146 0 0 -61 0 -61 35 30 c121 107 294 146 456 104z m1399 -8 c63 -20 133 -75 172 -133 l33 -49 53 59 c173 192 507 190 641 -4 62 -91 64 -109 69 -584 l3 -433 -140 0 -139 0 -4 373 c-5 416 -8 439 -74 497 -42 37 -68 44 -143 38 -103 -7 -186 -86 -210 -199 -7 -30 -11 -185 -11 -379 l0 -330 -140 0 -140 0 0 258 c-1 462 -16 557 -98 620 -31 24 -44 27 -112 27 -67 0 -82 -4 -118 -28 -53 -34 -87 -85 -108 -162 -13 -48 -17 -126 -21 -387 l-5 -328 -134 0 -134 0 0 570 0 570 135 0 135 0 0 -65 c0 -36 3 -65 6 -65 3 0 27 19 52 41 117 104 287 141 432 93z m1925 16 c157 -22 279 -81 376 -182 40 -41 47 -54 37 -63 -7 -7 -59 -36 -114 -66 l-101 -53 -33 28 c-18 15 -56 39 -84 54 -47 25 -60 27 -166 27 -111 0 -118 -1 -183 -33 -118 -58 -181 -165 -181 -307 0 -103 25 -167 93 -236 73 -74 138 -99 255 -99 117 0 190 26 291 104 14 10 215 -120 215 -140 0 -23 -113 -114 -185 -149 -103 -51 -182 -68 -315 -68 -198 0 -331 47 -448 158 -127 119 -186 257 -186 430 0 115 17 185 72 288 113 217 386 345 657 307z m-2602 -1837 c-7 -2 -21 -2 -30 0 -10 3 -4 5 12 5 17 0 24 -2 18 -5z m-125 -10 c-16 -2 -40 -2 -55 0 -16 2 -3 4 27 4 30 0 43 -2 28 -4z m371 3 c-2 -2 -51 -7 -108 -11 -73 -5 -101 -4 -97 4 5 7 46 11 108 11 56 0 99 -2 97 -4z m-261 -23 c-16 -2 -40 -2 -55 0 -16 2 -3 4 27 4 30 0 43 -2 28 -4z m-105 -10 c-7 -2 -19 -2 -25 0 -7 3 -2 5 12 5 14 0 19 -2 13 -5z m-46 -39 c-3 -3 -12 -4 -19 -1 -8 3 -5 6 6 6 11 1 17 -2 13 -5z m-59 -11 c-10 -2 -28 -2 -40 0 -13 2 -5 4 17 4 22 1 32 -1 23 -4z m-95 -30 c-13 -2 -35 -2 -50 0 -16 2 -5 4 22 4 28 0 40 -2 28 -4z m-143 -32 c-17 -10 -133 -21 -124 -12 3 3 31 9 62 12 31 3 62 7 67 7 6 1 3 -2 -5 -7z"
       id="path4" />
    <path
       d="M803 3086 c-138 -45 -214 -158 -214 -321 0 -169 74 -283 215 -331 60 -21 154 -15 217 13 156 70 226 273 158 459 -42 112 -142 185 -263 191 -42 2 -88 -3 -113 -11z"
       id="path6" />
  </g>
  <rect
     style="fill:#000000;stroke-width:0.75"
     id="rect16"
     width="175.2847"
     height="62.644707"
     x="76.498817"
     y="339.12469" />
</svg>
