<?xml version="1.0" encoding="utf-8"?>
<!-- Generator: Adobe Illustrator 25.2.3, SVG Export Plug-In . SVG Version: 6.00 Build 0)  -->
<svg version="1.1" id="Layer_1" xmlns="http://www.w3.org/2000/svg" xmlns:xlink="http://www.w3.org/1999/xlink" x="0px" y="0px"
	 viewBox="0 0 40 40" style="enable-background:new 0 0 40 40;" xml:space="preserve">
<style type="text/css">
	.st0{fill:#FFFFFF;}
	.st1{fill:#E41321;}
</style>
<circle class="st0" cx="20" cy="20" r="21.2"/>
<path class="st1" d="M29,28.5h-5.3c-0.3,0-0.5-0.2-0.5-0.5V14.6c0-0.3,0.2-0.5,0.5-0.5h4.9c3.7,0,4.5,2.2,4.5,4
	c0,1.1-0.3,1.9-0.8,2.5c1.4,0.6,2.1,1.8,2.1,3.7C34.3,26.9,32.3,28.5,29,28.5 M21.2,28.5H10.1c-0.3,0-0.5-0.2-0.5-0.5l0,0V14.6
	c0-0.3,0.2-0.5,0.5-0.5h5.2c3.2,0,5.2,1.7,5.2,4.7c0,1.9-1,3.5-2.5,4.1l3.7,4.8c0.2,0.2,0.2,0.6-0.1,0.8
	C21.5,28.5,21.3,28.5,21.2,28.5 M21.2,1.2c-11,0-20,8.9-20,20c0,11,8.9,20,20,20s20-8.9,20-20S32.2,1.2,21.2,1.2"/>
</svg>
